<?xml version="1.0" encoding="utf-8"?>
<svg viewBox="529.2216 239.112 15.8155 15.764" xmlns="http://www.w3.org/2000/svg">
  <path d="M 531.264 247.013 C 532.642 247.716 532.642 249.376 532.642 250.774 C 532.642 252.893 532.757 254.192 535.035 254.192 C 535.298 254.192 535.462 254.477 535.331 254.706 C 535.27 254.811 535.157 254.876 535.035 254.876 C 531.958 254.876 531.958 252.601 531.958 250.774 C 531.958 248.654 531.842 247.354 529.564 247.354 C 529.301 247.354 529.136 247.07 529.268 246.842 C 529.329 246.735 529.443 246.671 529.564 246.671 C 531.842 246.671 531.958 245.372 531.958 243.252 C 531.958 241.424 531.958 239.149 535.035 239.149 C 535.298 239.149 535.462 239.434 535.331 239.662 C 535.27 239.767 535.157 239.833 535.035 239.833 C 532.757 239.833 532.642 241.132 532.642 243.252 C 532.642 244.65 532.642 246.31 531.264 247.013 Z" style="fill: rgb(0, 139, 255);" transform="matrix(1, 0, 0, 1, -5.684341886080802e-14, 0)"/>
  <path d="M 544.694 246.634 C 542.417 246.634 542.302 245.335 542.302 243.215 C 542.302 241.387 542.302 239.112 539.224 239.112 C 538.96 239.112 538.796 239.397 538.927 239.625 C 538.989 239.73 539.102 239.796 539.224 239.796 C 541.502 239.796 541.617 241.095 541.617 243.215 C 541.617 244.613 541.617 246.273 542.995 246.976 C 541.617 247.679 541.617 249.339 541.617 250.737 C 541.617 252.856 541.502 254.155 539.224 254.155 C 538.96 254.155 538.796 254.44 538.927 254.669 C 538.989 254.774 539.102 254.839 539.224 254.839 C 542.302 254.839 542.302 252.564 542.302 250.737 C 542.302 248.617 542.417 247.317 544.694 247.317 C 544.958 247.317 545.122 247.033 544.991 246.805 C 544.93 246.698 544.817 246.634 544.694 246.634 Z" style="fill: rgb(0, 139, 255); paint-order: fill;" transform="matrix(1, 0, 0, 1, -5.684341886080802e-14, 0)"/>
</svg>
