<?xml version="1.0" encoding="utf-8"?>
<svg viewBox="526.734 236.067 21.121 22.137" xmlns="http://www.w3.org/2000/svg">
  <rect x="526.734" y="236.067" width="21.121" height="22.137" style="stroke: rgba(0, 0, 0, 0); paint-order: stroke; fill: rgb(255, 255, 255);" transform="matrix(1, 0, 0, 1, -5.684341886080802e-14, 0)"/>
  <path d="M 531.755 247.294 C 533.133 247.997 533.133 249.657 533.133 251.055 C 533.133 253.174 533.248 254.473 535.526 254.473 C 535.789 254.473 535.953 254.758 535.822 254.987 C 535.761 255.092 535.648 255.157 535.526 255.157 C 532.449 255.157 532.449 252.882 532.449 251.055 C 532.449 248.935 532.333 247.635 530.055 247.635 C 529.792 247.635 529.627 247.351 529.759 247.123 C 529.82 247.016 529.934 246.952 530.055 246.952 C 532.333 246.952 532.449 245.653 532.449 243.533 C 532.449 241.705 532.449 239.43 535.526 239.43 C 535.789 239.43 535.953 239.715 535.822 239.943 C 535.761 240.048 535.648 240.114 535.526 240.114 C 533.248 240.114 533.133 241.413 533.133 243.533 C 533.133 244.931 533.133 246.591 531.755 247.294 Z" style="fill: rgb(0, 139, 255);" transform="matrix(1, 0, 0, 1, -5.684341886080802e-14, 0)"/>
  <path d="M 545.185 246.915 C 542.908 246.915 542.793 245.616 542.793 243.496 C 542.793 241.668 542.793 239.393 539.715 239.393 C 539.451 239.393 539.287 239.678 539.418 239.906 C 539.48 240.011 539.593 240.077 539.715 240.077 C 541.993 240.077 542.108 241.376 542.108 243.496 C 542.108 244.894 542.108 246.554 543.486 247.257 C 542.108 247.96 542.108 249.62 542.108 251.018 C 542.108 253.137 541.993 254.436 539.715 254.436 C 539.451 254.436 539.287 254.721 539.418 254.95 C 539.48 255.055 539.593 255.12 539.715 255.12 C 542.793 255.12 542.793 252.845 542.793 251.018 C 542.793 248.898 542.908 247.598 545.185 247.598 C 545.449 247.598 545.613 247.314 545.482 247.086 C 545.421 246.979 545.308 246.915 545.185 246.915 Z" style="fill: rgb(0, 139, 255); paint-order: fill;" transform="matrix(1, 0, 0, 1, -5.684341886080802e-14, 0)"/>
</svg>
